<?xml version="1.0" encoding="utf-8"?>
<!-- Generator: Adobe Illustrator 22.1.0, SVG Export Plug-In . SVG Version: 6.00 Build 0)  -->
<svg version="1.1" id="Layer_1" xmlns="http://www.w3.org/2000/svg" xmlns:xlink="http://www.w3.org/1999/xlink" x="0px" y="0px"
	 viewBox="0 0 5000 5000" style="enable-background:new 0 0 5000 5000;" xml:space="preserve">
<style type="text/css">
	.st0{fill-rule:evenodd;clip-rule:evenodd;}
	.st1{fill-rule:evenodd;clip-rule:evenodd;fill:#00F7EF;}
	.st2{fill-rule:evenodd;clip-rule:evenodd;fill:#FFFFFF;}
	.st3{fill-rule:evenodd;clip-rule:evenodd;fill:#FF004F;}
</style>
<g>
	<circle class="st0" cx="2500" cy="2500" r="2500"/>
	<g>
		<path id="Blue" class="st1" d="M1508.9,3652.8c-621.6-539.4-219.6-1740.5,736.1-1589.3v111.2
			C1437.9,2137.2,1082.6,3099.9,1508.9,3652.8z M3252.2,1569.3c98.2,78.5,233.6,136.3,420.3,147.4v109
			C3465.9,1787.6,3335,1684.9,3252.2,1569.3z M2993,995.7c-0.1,40.2,5.1,83.4,11.7,122.9h-381v1896.9c0,87.4-9,165.3-26.9,233.6
			c-155.1,342-594.4,297.3-715.8,62.6c180.7,113.2,477.9,83.1,599.8-185.5c17.8-68.2,26.8-146.2,26.8-233.6V995.7H2993z"/>
		<path id="Black" class="st2" d="M3109.2,1118.5v2.4c0.1,43.9,13,679,679.5,718.6c0,590.8,0.3,0,0.3,490.7
			c-50.1,3-438.7-25.1-680.5-240.8l-0.7,955.3c6,432.6-234.8,856.8-685.6,942.3c-126.3,23.9-240,26.6-430.9-15.1
			c-1099.8-329-734.3-1960.2,370-1785.6c0,526.6,0.3-0.1,0.3,526.6c-456.2-67.1-608.8,312.4-487.6,584.1
			c110.3,247.4,564.6,301,723-48c17.9-68.3,26.9-146.2,26.9-233.6V1118.5H3109.2z"/>
		<path id="Red" class="st3" d="M2245.1,2174.7c37.7,1.6,76.4,5.4,116,11.6c0,526.6,0.3-0.1,0.3,526.6
			c-456.2-67.1-608.8,312.4-487.6,584.1c2.2,4.9,4.6,9.9,7.2,14.6c-54.3-33.9-97.9-80.6-123.3-137.5
			c-121.1-271.7,31.4-651.2,487.5-584.1C2245.2,2107.5,2245.1,2509.1,2245.1,2174.7z M3672.5,1825.7c36.3,6.7,75,11.5,116.1,13.9
			c0,590.8,0.3,0,0.3,490.7c-50.1,3-438.7-25.1-680.5-240.8l-0.7,955.3c6,432.6-234.8,856.8-685.6,942.3
			c-126.3,23.9-240,26.6-430.9-15.1c-214.9-64.3-373.6-178.5-482.2-319.1c96.7,84,218.1,152,366.2,196.4
			c190.7,41.6,304.5,38.9,430.8,14.9c450.8-85.5,691.6-509.7,685.8-942.1l0.6-955.4c241.8,215.7,630.5,243.9,680.7,240.8
			C3673,1751.7,3672.5,2228.7,3672.5,1825.7z M3109.2,1118.5v2.4c0,25.8,4.6,255.1,143,448.4c-166.8-133.5-226.3-326.3-247.5-450.8
			H3109.2z"/>
	</g>
</g>
</svg>
